<?xml version="1.0" standalone="no"?><!DOCTYPE svg PUBLIC "-//W3C//DTD SVG 1.1//EN" "http://www.w3.org/Graphics/SVG/1.1/DTD/svg11.dtd"><svg class="icon" height="512" viewBox="0 0 1024 1024" version="1.1" xmlns="http://www.w3.org/2000/svg"><path d="M512.008 512.008m-493.71 0a493.71 493.71 0 1 0 987.42 0 493.71 493.71 0 1 0-987.42 0Z" fill="#F7B239" /><path d="M252.616 771.388c-177.604-177.604-191.598-456.852-41.998-650.484A498.368 498.368 0 0 0 162.9 162.9c-192.802 192.802-192.802 505.396 0 698.198s505.396 192.802 698.198 0a498.68 498.68 0 0 0 41.998-47.716c-193.63 149.602-472.88 135.606-650.48-41.994z" fill="#E09B2D" /><path d="M512.002 1024C229.682 1024 0 794.318 0 512.002 0 229.682 229.682 0 512.002 0 794.318 0 1024 229.682 1024 512.002 1024 794.318 794.318 1024 512.002 1024z m0-987.402c-262.138 0-475.404 213.264-475.404 475.404s213.264 475.4 475.404 475.4c262.136 0 475.4-213.264 475.4-475.4 0-262.138-213.266-475.404-475.4-475.404z" fill="#333333" /><path d="M511.998 628.9c-83.016 0-166.034-31.602-229.234-94.802a18.3 18.3 0 0 1 0-25.878c7.146-7.146 18.734-7.146 25.878 0 112.132 112.132 294.582 112.13 406.714 0 7.146-7.146 18.734-7.146 25.878 0a18.3 18.3 0 0 1 0 25.878c-63.2 63.202-146.216 94.802-229.236 94.802z" fill="#333333" /><path d="M512.008 708.252a324.84 324.84 0 0 1-87.698-12.062 18.3 18.3 0 0 1-12.68-22.56c2.728-9.73 12.838-15.408 22.56-12.68a288.204 288.204 0 0 0 155.642 0c9.732-2.732 19.832 2.95 22.56 12.68a18.3 18.3 0 0 1-12.68 22.56 324.914 324.914 0 0 1-87.704 12.062z" fill="#E09B2D" /><path d="M386.266 405.302a18.3 18.3 0 0 1-18.3-18.3c0-49.112-39.956-89.07-89.07-89.07s-89.07 39.956-89.07 89.07a18.3 18.3 0 0 1-36.6 0c0-69.292 56.374-125.668 125.668-125.668s125.668 56.374 125.668 125.668c0.004 10.108-8.19 18.3-18.296 18.3zM852.472 405.302a18.3 18.3 0 0 1-18.3-18.3c0-49.112-39.956-89.07-89.07-89.07-49.114 0-89.07 39.956-89.07 89.07a18.3 18.3 0 0 1-36.6 0c0-69.292 56.374-125.668 125.668-125.668s125.668 56.374 125.668 125.668a18.296 18.296 0 0 1-18.296 18.3z" fill="#333333" /><path d="M201.144 487.536m-48.238 0a48.238 48.238 0 1 0 96.476 0 48.238 48.238 0 1 0-96.476 0Z" fill="#F95428" /><path d="M822.85 487.536m-48.238 0a48.238 48.238 0 1 0 96.476 0 48.238 48.238 0 1 0-96.476 0Z" fill="#F95428" /><path d="M851.964 215.936c-70.896-81.308-168.31-134.64-274.298-150.17a18.3 18.3 0 0 0-5.306 36.21c97.354 14.264 186.856 63.278 252.02 138.012 65.792 75.456 102.024 172.058 102.024 272.012a18.3 18.3 0 0 0 36.6 0c0-108.8-39.436-213.944-111.04-296.064z" fill="#FFFFFF" /><path d="M512.008 79.296m-18.3 0a18.3 18.3 0 1 0 36.6 0 18.3 18.3 0 1 0-36.6 0Z" fill="#FFFFFF" /></svg>