<?xml version="1.0" standalone="no"?><!DOCTYPE svg PUBLIC "-//W3C//DTD SVG 1.1//EN" "http://www.w3.org/Graphics/SVG/1.1/DTD/svg11.dtd"><svg class="icon" height="512" viewBox="0 0 1024 1024" version="1.1" xmlns="http://www.w3.org/2000/svg"><path d="M512.008 512.006m-493.708071 0a493.708071 493.708071 0 1 0 987.416142 0 493.708071 493.708071 0 1 0-987.416142 0Z" fill="#9AD14B" /><path d="M252.615013 771.384987c-177.603306-177.603306-191.597252-456.850215-41.997836-650.479459a498.124054 498.124054 0 0 0-47.715813 41.997836c-192.801247 192.801247-192.801247 505.394026 0 698.195272s505.394026 192.801247 698.195272 0a498.678052 498.678052 0 0 0 41.997836-47.715813c-193.627244 149.597416-472.878153 135.60347-650.479459-41.997836z" fill="#90BC42" /><path d="M944.70231 530.297929a18.299929 18.299929 0 0 1-18.299929-18.299929c0-99.95361-36.233858-196.559232-102.023601-272.010937-65.163745-74.731708-154.665396-123.745517-252.019016-138.009461-9.997961-1.465994-16.917934-10.759958-15.451939-20.757919s10.761958-16.913934 20.757918-15.45194c105.985586 15.529939 203.399205 68.859731 274.296929 150.169413 71.60372 82.121679 111.037566 187.263269 111.037566 296.062844a18.297929 18.297929 0 0 1-18.297928 18.297929z" fill="#FFFFFF" /><path d="M572.371764 786.474928a18.253929 18.253929 0 0 1-6.197976-1.085996 160.269374 160.269374 0 0 0-108.347576 0 18.299929 18.299929 0 0 1-12.397952-34.433865c42.929832-15.45594 90.213648-15.45594 133.14148 0a18.299929 18.299929 0 0 1-6.197976 35.519861z" fill="#90BC42" /><path d="M512.008 79.29569m-18.299929 0a18.299929 18.299929 0 1 0 36.599857 0 18.299929 18.299929 0 1 0-36.599857 0Z" fill="#FFFFFF" /><path d="M512 0c-282.316897 0-511.998 229.681103-511.998 512s229.681103 512 512 512c282.314897 0 511.996-229.681103 511.996-512S794.314897 0 512 0z m0 987.398143c-262.136976 0-475.402143-213.261167-475.402143-475.398143S249.863024 36.597857 512 36.597857c262.134976 0 475.398143 213.263167 475.398143 475.402143s-213.263167 475.398143-475.398143 475.398143z" fill="#333333" /><path d="M734.405131 619.349581a18.299929 18.299929 0 0 0 0-36.599857c-54.301788 0-99.495611 39.635845-108.235577 91.489642H397.832446c-8.739966-51.853797-53.933789-91.489643-108.235577-91.489642a18.299929 18.299929 0 0 0 0 36.599857c40.357842 0 73.191714 32.833872 73.191714 73.191714s-32.833872 73.191714-73.191714 73.191714a18.299929 18.299929 0 0 0 0 36.599857c54.301788 0 99.495611-39.635845 108.235577-91.489643h228.337108c8.739966 51.853797 53.933789 91.489643 108.235577 91.489643a18.299929 18.299929 0 0 0 0-36.599857c-40.357842 0-73.191714-32.833872-73.191714-73.191714 0-40.359842 32.833872-73.191714 73.191714-73.191714zM361.152589 474.882145c0-37.331854-30.371881-67.703736-67.703735-67.703736s-67.703736 30.371881-67.703736 67.703736 30.371881 67.703736 67.703736 67.703736 67.703736-30.371881 67.703735-67.703736zM730.551146 407.178409c-37.331854 0-67.703736 30.371881-67.703735 67.703736s30.371881 67.703736 67.703735 67.703736 67.703736-30.371881 67.703736-67.703736-30.373881-67.703736-67.703736-67.703736zM239.571064 366.846567a100.387608 100.387608 0 0 0 24.561904 3.069988c25.845899 0 50.749802-10.15396 69.667728-29.073886 24.881903-24.881903 34.601865-60.107765 26.003899-94.229632-2.46999-9.799962-12.415952-15.743939-22.215914-13.271948a18.297929 18.297929 0 0 0-13.271948 22.215913c5.421979 21.511916-0.707997 43.719829-16.395936 59.407768-15.685939 15.687939-37.893852 21.811915-59.407768 16.395936-9.803962-2.47599-19.745923 3.471986-22.215913 13.271948a18.299929 18.299929 0 0 0 13.273948 22.213913zM759.865032 369.916555c8.143968 0 16.385936-1.007996 24.561904-3.069988a18.295929 18.295929 0 0 0 13.271948-22.215913 18.295929 18.295929 0 0 0-22.215913-13.271948c-21.511916 5.417979-43.719829-0.707997-59.407768-16.395936-15.687939-15.685939-21.813915-37.893852-16.395936-59.407768a18.299929 18.299929 0 0 0-13.271948-22.215913c-9.797962-2.47399-19.745923 3.471986-22.215913 13.271948-8.597966 34.121867 1.121996 69.345729 26.003898 94.229632 18.921926 18.921926 43.821829 29.077886 69.669728 29.075886z" fill="#333333" /><path d="M746.877083 477.636134c-3.369987 0.018-6.737974-0.841997-9.613963-2.61399-6.519975-4.023984-9.975961-12.445951-8.163968-19.889922 2.161992-8.877965 11.391956-15.207941 20.44592-13.725946 6.187976 1.011996 11.847954 5.275979 14.241944 11.107956 2.907989 7.087972 0.753997 15.931938-5.08798 20.889919-3.263987 2.771989-7.541971 4.207984-11.821953 4.231983zM317.46276 477.570134c-3.639986 0.008-7.277972-1.009996-10.28596-3.069988-6.285975-4.305983-9.319964-12.83795-7.167972-20.145921 3.679986-12.483951 19.335924-16.865934 29.153886-8.639966 2.431991 2.037992 4.363983 4.687982 5.431979 7.68397 2.55399 7.177972-0.004 15.863938-6.043976 20.51192-3.149988 2.423991-7.117972 3.649986-11.087957 3.659985z" fill="#FFFFFF" /></svg>